HIERARCHY
ROOT Hips
{
	OFFSET 0.000000 0.000000 0.000000
	CHANNELS 6 Xposition Yposition Zposition Zrotation Yrotation Xrotation 
	JOINT LHipJoint
	{
		OFFSET 0.000000 0.000000 0.000000
		CHANNELS 3 Zrotation Yrotation Xrotation
		JOINT LeftUpLeg
		{
			OFFSET 1.363060 -1.794630 0.839290
			CHANNELS 3 Zrotation Yrotation Xrotation
			JOINT LeftLeg
			{
				OFFSET 2.448110 -6.726130 0.000000
				CHANNELS 3 Zrotation Yrotation Xrotation
				JOINT LeftFoot
				{
					OFFSET 2.562200 -7.039590 0.000000
					CHANNELS 3 Zrotation Yrotation Xrotation
					JOINT LeftToeBase
					{
						OFFSET 0.157640 -0.433110 2.322550
						CHANNELS 3 Zrotation Yrotation Xrotation
						End Site
						{
							OFFSET 0.000000 0.000000 0.000000
						}
					}
				}
			}
		}
	}
	JOINT RHipJoint
	{
		OFFSET 0.000000 0.000000 0.000000
		CHANNELS 3 Zrotation Yrotation Xrotation
		JOINT RightUpLeg
		{
			OFFSET -1.305520 -1.794630 0.839290
			CHANNELS 3 Zrotation Yrotation Xrotation
			JOINT RightLeg
			{
				OFFSET -2.542530 -6.985550 0.000000
				CHANNELS 3 Zrotation Yrotation Xrotation
				JOINT RightFoot
				{
					OFFSET -2.568260 -7.056230 0.000000
					CHANNELS 3 Zrotation Yrotation Xrotation
					JOINT RightToeBase
					{
						OFFSET -0.164730 -0.452590 2.363150
						CHANNELS 3 Zrotation Yrotation Xrotation
						End Site
						{
							OFFSET 0.000000 0.000000 0.000000
						}
					}
				}
			}
		}
	}
	JOINT LowerBack
	{
		OFFSET 0.000000 0.000000 0.000000
		CHANNELS 3 Zrotation Yrotation Xrotation
		JOINT Spine
		{
			OFFSET 0.028270 2.035590 -0.193380
			CHANNELS 3 Zrotation Yrotation Xrotation
			JOINT Spine1
			{
				OFFSET 0.056720 2.048850 -0.042750
				CHANNELS 3 Zrotation Yrotation Xrotation
				JOINT Neck
				{
					OFFSET 0.000000 0.000000 0.000000
					CHANNELS 3 Zrotation Yrotation Xrotation
					JOINT Neck1
					{
						OFFSET -0.054170 1.746240 0.172020
						CHANNELS 3 Zrotation Yrotation Xrotation
						JOINT Head
						{
							OFFSET 0.104070 1.761360 -0.123970
							CHANNELS 3 Zrotation Yrotation Xrotation
							End Site
							{
								OFFSET 0.000000 0.000000 0.000000
							}
						}
					}
				}
				JOINT LeftShoulder
				{
					OFFSET 0.000000 0.000000 0.000000
					CHANNELS 3 Zrotation Yrotation Xrotation
					JOINT LeftArm
					{
						OFFSET 3.362410 1.200890 -0.311210
						CHANNELS 3 Zrotation Yrotation Xrotation
						JOINT LeftForeArm
						{
							OFFSET 4.983000 -0.000000 -0.000000
							CHANNELS 3 Zrotation Yrotation Xrotation
							JOINT LeftHand
							{
								OFFSET 3.483560 -0.000000 -0.000000
								CHANNELS 3 Zrotation Yrotation Xrotation
								JOINT LeftFingerBase
								{
									OFFSET 0.000000 0.000000 0.000000
									CHANNELS 3 Zrotation Yrotation Xrotation
									JOINT LeftHandIndex1
									{
										OFFSET 0.715260 -0.000000 -0.000000
										CHANNELS 3 Zrotation Yrotation Xrotation
										End Site
										{
											OFFSET 0.000000 0.000000 0.000000
										}
									}
								}
								JOINT LThumb
								{
									OFFSET 0.000000 0.000000 0.000000
									CHANNELS 3 Zrotation Yrotation Xrotation
									End Site
									{
										OFFSET 0.000000 0.000000 0.000000
									}
								}
							}
						}
					}
				}
				JOINT RightShoulder
				{
					OFFSET 0.000000 0.000000 0.000000
					CHANNELS 3 Zrotation Yrotation Xrotation
					JOINT RightArm
					{
						OFFSET -3.136600 1.374050 -0.404650
						CHANNELS 3 Zrotation Yrotation Xrotation
						JOINT RightForeArm
						{
							OFFSET -5.241900 -0.000000 -0.000000
							CHANNELS 3 Zrotation Yrotation Xrotation
							JOINT RightHand
							{
								OFFSET -3.444170 -0.000000 -0.000000
								CHANNELS 3 Zrotation Yrotation Xrotation
								JOINT RightFingerBase
								{
									OFFSET 0.000000 0.000000 0.000000
									CHANNELS 3 Zrotation Yrotation Xrotation
									JOINT RightHandIndex1
									{
										OFFSET -0.622530 -0.000000 -0.000000
										CHANNELS 3 Zrotation Yrotation Xrotation
										End Site
										{
											OFFSET 0.000000 0.000000 0.000000
										}
									}
								}
								JOINT RThumb
								{
									OFFSET 0.000000 0.000000 0.000000
									CHANNELS 3 Zrotation Yrotation Xrotation
									End Site
									{
										OFFSET 0.000000 0.000000 0.000000
									}
								}
							}
						}
					}
				}
			}
		}
	}
}
MOTION
Frames: 12
Frame Time: 0.008333
-17.750947 16.113096 -0.417594 -4.158775 86.094829 34.490076 -8.159476 -1.843979 2.201343 -7.846064 -9.762857 -69.509252 -1.224831 2.032150 44.371380 2.948119 10.001369 -15.391764 -0.847699 0.000000 -24.155400 11.421403 -1.786295 -3.352927 4.330268 -6.480174 -20.564681 0.131682 -2.876171 44.541338 -2.763584 -15.658184 7.334891 -4.280300 0.000000 -51.841500 -8.780859 1.527494 4.028043 -3.061443 1.781712 -2.145520 -5.894157 1.694316 0.137117 4.828207 5.675343 2.550017 -3.303563 -0.340957 2.218795 0.000000 0.000000 0.000000 -1.971428 0.787669 3.197876 -42.998772 8.188610 11.293618 -4.107485 -25.235155 -0.007096 -0.940938 2.680526 -0.018432 -0.152600 -0.030124 0.000000 0.000000 0.000000 0.000000 0.000000 0.000000 0.000000 11.186407 8.120430 -1.295021 80.230518 35.838333 35.099825 1.440879 54.669931 0.008317 1.940106 8.793051 0.156267 -0.017800 -0.308499 -0.000000 0.000000 0.000000 0.000000 0.000000 0.000000 0.000000 
-17.575100 15.983071 -0.433714 -3.368429 86.005422 34.933931 -8.173908 -1.979442 1.860956 -8.190519 -9.693299 -70.006446 -1.030109 2.360907 48.206486 3.041074 10.283260 -16.944799 -1.236800 -0.000000 -23.207200 11.506149 -1.719583 -3.461349 3.831589 -6.466767 -20.988017 0.009693 -3.104364 47.519078 -2.844597 -16.053158 5.725567 -3.956200 0.000000 -50.774800 -8.982351 1.483287 4.484202 -3.127166 1.731388 -2.084955 -6.019339 1.641978 -0.016876 5.025484 6.126519 2.574198 -3.426915 -0.347241 2.211875 0.000000 0.000000 0.000000 -2.334921 0.272820 3.311838 -42.486936 8.403253 12.065637 -4.155451 -24.978002 -0.007054 -1.113084 2.628139 -0.022036 -0.152042 -0.031402 0.000000 0.000000 0.000000 0.000000 0.000000 0.000000 0.000000 11.993801 8.535820 -1.124323 79.278964 35.868986 34.441273 1.404255 54.691720 0.007863 1.992168 8.863564 0.162149 -0.023068 -0.312503 -0.000000 0.000000 0.000000 0.000000 0.000000 0.000000 0.000000 
-17.401198 15.857294 -0.447192 -1.894709 85.958305 36.032860 -8.165611 -2.111260 1.492894 -8.632880 -9.632595 -70.256402 -0.863833 2.640863 51.742722 3.148207 10.616107 -18.661478 -1.684300 -0.000001 -22.587399 11.619968 -1.657546 -3.574049 3.288591 -6.398852 -21.393814 -0.108933 -3.348009 50.414961 -2.879753 -16.171509 4.102858 -3.537401 0.000000 -49.835600 -9.196985 1.444117 4.990558 -3.199454 1.684203 -2.012667 -6.159578 1.592754 -0.170476 5.279652 6.641271 2.649336 -3.566472 -0.354714 2.214970 0.000000 0.000000 0.000000 -2.763127 -0.278961 3.428626 -41.874307 8.405590 12.935645 -4.222375 -24.556613 -0.006989 -1.394154 2.533549 -0.027538 -0.152006 -0.032577 0.000000 0.000000 0.000000 0.000000 0.000000 0.000000 0.000000 12.931163 8.977764 -0.956439 78.255635 35.850802 33.545330 1.362455 54.591508 0.007143 2.015230 8.981267 0.166629 -0.028854 -0.316819 -0.000000 0.000000 0.000000 0.000000 0.000000 0.000000 0.000000 
-17.229171 15.738024 -0.458394 0.102597 85.948134 37.639238 -8.136835 -2.231036 1.104517 -9.160771 -9.575304 -70.261101 -0.727622 2.873834 54.932511 3.268609 10.990377 -20.495890 -2.185399 -0.000000 -22.322100 11.759345 -1.598682 -3.688199 2.724883 -6.269080 -21.801234 -0.225917 -3.603814 53.218466 -2.874410 -16.052141 2.458668 -3.055300 0.000000 -48.975000 -9.411144 1.416472 5.536180 -3.274334 1.646368 -1.931522 -6.310738 1.552594 -0.323584 5.581947 7.210190 2.777941 -3.718311 -0.363147 2.229239 0.000000 0.000000 0.000000 -3.253008 -0.879333 3.546047 -41.192735 8.185206 13.820636 -4.308498 -23.936567 -0.006935 -1.778730 2.408671 -0.034440 -0.152773 -0.033336 0.000000 0.000000 0.000000 0.000000 0.000000 0.000000 0.000000 13.970300 9.434723 -0.795039 77.179041 35.762094 32.396628 1.314423 54.355751 0.006065 1.988213 9.155768 0.168108 -0.034847 -0.321436 -0.000000 0.000000 0.000000 0.000000 0.000000 0.000000 0.000000 
-17.058000 15.627037 -0.467822 2.424339 85.965443 39.566688 -8.091799 -2.331039 0.705757 -9.751903 -9.514314 -70.036644 -0.620926 3.063386 57.749828 3.399762 11.392459 -22.392954 -2.730900 -0.000000 -22.399200 11.918503 -1.540370 -3.799832 2.167806 -6.073263 -22.234362 -0.343377 -3.866731 55.927143 -2.836041 -15.743814 0.784926 -2.539300 0.000001 -48.110600 -9.609894 1.407161 6.104634 -3.347192 1.624691 -1.846068 -6.467179 1.527924 -0.477432 5.921189 7.818801 2.961372 -3.876884 -0.372231 2.255943 0.000000 0.000000 0.000000 -3.792067 -1.551645 3.661213 -40.496633 7.760799 14.595525 -4.411595 -23.091709 -0.006931 -2.244719 2.278962 -0.041941 -0.154555 -0.033223 0.000000 0.000000 0.000000 0.000000 0.000000 0.000000 0.000000 15.073889 9.892580 -0.642968 76.072039 35.581292 30.992673 1.259127 53.974396 0.004506 1.881908 9.395494 0.163786 -0.040571 -0.326323 -0.000000 0.000000 0.000000 0.000000 0.000000 0.000000 0.000000 
-16.886923 15.525720 -0.476320 4.846520 85.999346 41.606483 -8.038093 -2.405926 0.307886 -10.374770 -9.442171 -69.611583 -0.541659 3.214507 60.186012 3.537584 11.806178 -24.293406 -3.306200 0.000000 -22.768600 12.087493 -1.479130 -3.905297 1.647171 -5.809710 -22.720219 -0.463477 -4.130030 58.541300 -2.773887 -15.303509 -0.916897 -2.017000 0.000000 -47.187300 -9.774856 1.420687 6.677791 -3.411901 1.624117 -1.757657 -6.620949 1.523851 -0.621285 6.278795 8.447070 3.184555 -4.035550 -0.381368 2.291826 0.000000 0.000000 0.000000 -4.369067 -2.223043 3.769046 -39.829765 7.021821 15.227420 -4.528446 -21.954409 -0.006945 -2.734654 2.167483 -0.049242 -0.157583 -0.031480 0.000000 0.000000 0.000000 0.000000 0.000000 0.000000 0.000000 16.188102 10.331551 -0.511654 74.975115 35.300858 29.345305 1.195250 53.439019 0.002341 1.670366 9.705902 0.150964 -0.045587 -0.331219 -0.000000 0.000000 0.000000 0.000000 0.000000 0.000000 0.000000 
-16.715255 15.434937 -0.484646 7.187564 86.044083 43.590373 -7.984370 -2.453411 -0.075835 -10.997772 -9.357056 -69.020930 -0.486592 3.332027 62.247957 3.676817 12.213793 -26.139558 -3.892900 0.000000 -23.344400 12.255715 -1.413124 -4.000128 1.188432 -5.485089 -23.286688 -0.587436 -4.387397 61.065283 -2.697579 -14.787946 -2.641329 -1.509400 -0.000001 -46.126600 -9.891546 1.459260 7.232870 -3.463436 1.647698 -1.672186 -6.765173 1.543120 -0.756746 6.639208 9.076818 3.443934 -4.186900 -0.390161 2.337396 0.000000 0.000000 0.000000 -4.970215 -2.914640 3.865284 -39.253393 6.012360 15.576080 -4.650606 -20.526132 -0.006982 -3.183745 2.120474 -0.056442 -0.161572 -0.027366 0.000000 0.000000 0.000000 0.000000 0.000000 0.000000 0.000000 17.262869 10.738055 -0.403141 73.921434 34.903882 27.469229 1.122053 52.745916 -0.000541 1.323423 10.088824 0.125443 -0.049384 -0.335984 -0.000000 0.000000 0.000000 0.000000 0.000000 0.000000 0.000000 
-16.541871 15.355158 -0.493632 9.316921 86.098925 45.400035 -7.939461 -2.474631 -0.432488 -11.589659 -9.262142 -68.302997 -0.451802 3.420540 63.954920 3.811756 12.598326 -27.880965 -4.470200 0.000000 -24.016500 12.412474 -1.341492 -4.080900 0.812535 -5.112588 -23.958466 -0.715717 -4.633191 63.502405 -2.616793 -14.252057 -4.374132 -1.031700 0.000000 -44.882399 -9.946740 1.521176 7.748306 -3.497110 1.694953 -1.593605 -6.893126 1.585294 -0.880622 6.986424 9.687943 3.728743 -4.323772 -0.398155 2.391148 0.000000 0.000000 0.000000 -5.581066 -3.611801 3.945127 -38.819946 4.733114 15.530812 -4.766362 -18.802290 -0.007018 -3.500982 2.181964 -0.063843 -0.165813 -0.019950 0.000000 0.000000 0.000000 0.000000 0.000000 0.000000 0.000000 18.248060 11.097337 -0.321047 72.948497 34.383781 25.387438 1.039061 51.893802 -0.004233 0.816317 10.542204 0.082822 -0.051542 -0.340371 -0.000000 0.000000 0.000000 0.000000 0.000000 0.000000 0.000000 
-16.366349 15.286498 -0.503953 11.165194 86.168266 46.975272 -7.910665 -2.472890 -0.750382 -12.124428 -9.165297 -67.494392 -0.433189 3.483955 65.334769 3.937090 12.945342 -29.478450 -5.017999 0.000000 -24.668500 12.549049 -1.264234 -4.145097 0.534129 -4.711247 -24.755140 -0.848138 -4.862993 65.854110 -2.540247 -13.743492 -6.094314 -0.592700 0.000001 -43.436700 -9.929772 1.601496 8.204677 -3.509253 1.762372 -1.524726 -6.999304 1.647126 -0.988436 7.306761 10.261429 4.025738 -4.439730 -0.404948 2.450835 0.000000 0.000000 0.000000 -6.186809 -4.291753 4.004026 -38.572264 3.180080 14.990841 -4.859636 -16.792067 -0.007050 -3.574565 2.386055 -0.070947 -0.169009 -0.008334 0.000000 0.000000 0.000000 0.000000 0.000000 0.000000 0.000000 19.099642 11.397183 -0.267355 72.090285 33.742395 23.127094 0.946389 50.883724 -0.008765 0.130875 11.058929 0.018302 -0.051755 -0.344088 -0.000000 0.000000 0.000000 0.000000 0.000000 0.000000 0.000000 
-16.188125 15.228784 -0.516088 12.711521 86.258605 48.302075 -7.902851 -2.452932 -1.021651 -12.582500 -9.076174 -66.627374 -0.426885 3.525763 66.421207 4.048769 13.245369 -30.907161 -5.520000 0.000000 -25.201601 12.659271 -1.180836 -4.192723 0.360964 -4.303185 -25.688996 -0.984032 -5.073795 68.117994 -2.475254 -13.300746 -7.776415 -0.195000 0.000000 -41.804400 -9.833805 1.692047 8.590403 -3.497718 1.843161 -1.463036 -7.079693 1.722800 -1.064966 7.588887 10.776097 4.308422 -4.530465 -0.410081 2.509964 0.000000 0.000000 0.000000 -6.770723 -4.853638 4.035943 -38.531529 1.238533 13.935956 -4.911193 -14.484409 -0.007115 -3.274260 2.731273 -0.073554 -0.169426 0.008193 0.000000 0.000000 0.000000 0.000000 0.000000 0.000000 0.000000 19.783013 11.622929 -0.247867 71.379013 33.004630 20.727151 0.844746 49.716932 -0.014089 -0.741712 11.627432 -0.072518 -0.049846 -0.346705 -0.000000 0.000000 0.000000 0.000000 0.000000 0.000000 0.000000 
-16.006642 15.181757 -0.530233 14.002191 86.378651 49.426445 -7.917270 -2.417855 -1.238993 -12.954753 -9.005597 -65.725315 -0.429760 3.548242 67.247319 4.144541 13.493819 -32.156366 -5.965200 0.000000 -25.551900 12.741480 -1.091424 -4.222301 0.292649 -3.912253 -26.762906 -1.122312 -5.263543 70.286233 -2.427162 -12.950803 -9.393789 0.163200 -0.000000 -40.029801 -9.655933 1.785221 8.892088 -3.462572 1.930569 -1.414017 -7.135735 1.805261 -1.119972 7.830355 11.227334 4.580429 -4.592463 -0.413595 2.570781 0.000000 0.000000 0.000000 -7.331235 -5.380074 4.042852 -38.698930 -0.908193 12.263451 -4.895997 -12.037966 -0.007502 -2.470728 3.200693 -0.063670 -0.164833 0.028876 0.000000 0.000000 0.000000 0.000000 0.000000 0.000000 0.000000 20.285669 11.780988 -0.249861 70.823210 32.166305 18.203280 0.736352 48.400408 -0.020056 -1.798417 12.226637 -0.193238 -0.045786 -0.348110 -0.000000 0.000000 0.000000 0.000000 0.000000 0.000000 0.000000 
-15.821922 15.145116 -0.546373 15.096927 86.533443 50.406529 -7.952960 -2.371098 -1.402574 -13.238837 -8.959540 -64.803071 -0.439787 3.553815 67.843793 4.224007 13.692245 -33.229196 -6.349700 -0.000000 -25.697700 12.795324 -0.994113 -4.236953 0.324444 -3.558548 -27.970965 -1.261422 -5.431577 72.346433 -2.399141 -12.708510 -10.921001 0.486500 0.000000 -38.180200 -9.398117 1.871156 9.112017 -3.405204 2.015184 -1.370337 -7.169003 1.886405 -1.132716 8.027996 11.599096 4.809800 -4.626259 -0.415203 2.624284 0.000000 0.000000 0.000000 -7.861291 -5.730197 4.021819 -39.043809 -3.408951 10.139758 -4.796667 -9.516488 -0.008547 -1.056483 3.696168 -0.028495 -0.153853 0.052346 0.000000 0.000000 0.000000 0.000000 0.000000 0.000000 0.000000 20.602709 11.862457 -0.277251 70.434071 31.275833 15.599987 0.624091 46.938393 -0.026415 -3.023830 12.832317 -0.345058 -0.039646 -0.347850 0.000000 0.000000 0.000000 0.000000 0.000000 0.000000 0.000000 
